<svg width="26" height="29" viewBox="0 0 26 29" fill="none" xmlns="http://www.w3.org/2000/svg">
<path d="M25.9998 10.2356C25.9998 7.51174 24.954 4.94433 23.0545 3.00594C21.1552 1.06754 18.6396 0 15.971 0H10.0286C10.0286 0 10.0286 0 10.0284 0C7.35994 0 4.84434 1.06754 2.94528 3.00571C1.046 4.94411 0 7.51174 0 10.2354V15.0025C0 17.1117 0.630419 19.1408 1.82318 20.8703C2.87547 22.3961 4.29066 23.5877 5.94063 24.3435V27.0817C5.94063 28.4975 6.71738 28.9998 7.38249 29C7.85769 29 8.3331 28.7606 8.79573 28.2887L11.7846 25.2378H15.9712C18.6398 25.2378 21.1554 24.1703 23.0547 22.2319C24.954 20.2935 26 17.7261 26 15.0025L25.9998 10.2356ZM18.3663 18.3151L16.1594 20.5672C15.5827 21.1557 14.814 21.4794 13.9945 21.4794C13.1751 21.4794 12.4063 21.1555 11.8297 20.5672L4.8942 13.4887C3.70078 12.2702 3.70078 10.288 4.8942 9.0698L7.1011 6.81767C7.25719 6.65815 7.46877 6.56876 7.68968 6.56876C7.91037 6.56876 8.12217 6.65815 8.27826 6.81767L11.4308 10.0351C11.5869 10.1944 11.6745 10.4106 11.6745 10.6358C11.6745 10.8611 11.5869 11.0772 11.4306 11.2365L10.7583 11.9226L13.3641 14.5821L14.0366 13.8958C14.3618 13.5641 14.8888 13.5641 15.2137 13.896L18.3663 17.1134C18.5226 17.2727 18.6101 17.4889 18.6101 17.7141C18.6101 17.9396 18.5226 18.1558 18.3663 18.3151ZM12.3695 8.24807C12.3695 7.77901 12.7421 7.39846 13.2019 7.39846C16.0863 7.39846 18.433 9.7933 18.433 12.7368C18.433 13.2061 18.0604 13.5864 17.6006 13.5864C17.141 13.5864 16.7681 13.2061 16.7681 12.7368C16.7681 10.7303 15.1684 9.09768 13.2019 9.09768C12.7421 9.09768 12.3695 8.71735 12.3695 8.24807ZM21.1669 13.5869C20.7071 13.5869 20.3345 13.2063 20.3345 12.7373C20.3347 10.7927 19.5926 8.96471 18.2455 7.58962C16.8982 6.21476 15.1071 5.45741 13.2017 5.45741C12.7421 5.45741 12.3693 5.07708 12.3693 4.6078C12.3693 4.13875 12.7421 3.75819 13.2017 3.75819C15.5517 3.75819 17.761 4.69232 19.4227 6.38822C21.0846 8.08412 21.9996 10.3389 21.9994 12.7373C21.9994 13.2063 21.6267 13.5869 21.1669 13.5869Z" fill="white"/>
</svg>
