<svg width="23" height="23" viewBox="0 0 23 23" fill="none" xmlns="http://www.w3.org/2000/svg">
<path d="M16.7741 0H6.22589C2.79288 0 0 2.79288 0 6.22589V16.7743C0 20.2071 2.79288 23 6.22589 23H16.7743C20.2071 23 23 20.2071 23 16.7743V6.22589C23 2.79288 20.2071 0 16.7741 0V0ZM11.5 17.7889C8.03224 17.7889 5.21111 14.9678 5.21111 11.5C5.21111 8.03224 8.03224 5.21111 11.5 5.21111C14.9678 5.21111 17.7889 8.03224 17.7889 11.5C17.7889 14.9678 14.9678 17.7889 11.5 17.7889ZM17.9393 6.69424C16.9145 6.69424 16.081 5.86073 16.081 4.83595C16.081 3.81116 16.9145 2.97748 17.9393 2.97748C18.9641 2.97748 19.7977 3.81116 19.7977 4.83595C19.7977 5.86073 18.9641 6.69424 17.9393 6.69424Z" fill="white"/>
<path d="M11.5001 6.55946C8.77601 6.55946 6.55957 8.77572 6.55957 11.5C6.55957 14.2241 8.77601 16.4405 11.5001 16.4405C14.2244 16.4405 16.4406 14.2241 16.4406 11.5C16.4406 8.77572 14.2244 6.55946 11.5001 6.55946Z" fill="white"/>
<path d="M17.9396 4.32589C17.6585 4.32589 17.4297 4.55471 17.4297 4.83582C17.4297 5.11694 17.6585 5.34576 17.9396 5.34576C18.2209 5.34576 18.4497 5.11711 18.4497 4.83582C18.4497 4.55453 18.2209 4.32589 17.9396 4.32589Z" fill="white"/>
</svg>
