<svg width="17" height="20" viewBox="0 0 17 20" fill="none" xmlns="http://www.w3.org/2000/svg">
<path d="M16.9999 7.05902C16.9999 5.18051 16.3161 3.40988 15.0741 2.07306C13.8323 0.736237 12.1874 0 10.4426 0H6.55716C6.55716 0 6.55716 0 6.55702 0C4.81227 0 3.16745 0.736237 1.92576 2.07291C0.683924 3.40973 0 5.18051 0 7.05887V10.3465C0 11.8011 0.412197 13.2005 1.19208 14.3933C1.88012 15.4456 2.80543 16.2674 3.88426 16.7886V18.6771C3.88426 19.6535 4.39214 19.9998 4.82701 20C5.13772 20 5.44857 19.8349 5.75105 19.5094L7.7053 17.4054H10.4427C12.1876 17.4054 13.8324 16.6692 15.0742 15.3323C16.3161 13.9955 17 12.2249 17 10.3465L16.9999 7.05902ZM12.0087 12.6311L10.5657 14.1843C10.1887 14.5901 9.68606 14.8134 9.15026 14.8134C8.61446 14.8134 8.11183 14.59 7.73479 14.1843L3.20005 9.30252C2.41974 8.46222 2.41974 7.09518 3.20005 6.25504L4.64303 4.70184C4.74508 4.59183 4.88343 4.53018 5.02787 4.53018C5.17216 4.53018 5.31065 4.59183 5.41271 4.70184L7.47397 6.92078C7.57603 7.03064 7.6333 7.17972 7.6333 7.33505C7.6333 7.49039 7.57603 7.63947 7.47383 7.74933L7.03428 8.2225L8.73806 10.0566L9.17776 9.58328C9.39038 9.35455 9.73496 9.35455 9.94744 9.58344L12.0087 11.8024C12.1109 11.9122 12.1682 12.0613 12.1682 12.2166C12.1682 12.3721 12.1109 12.5212 12.0087 12.6311ZM8.08773 5.68832C8.08773 5.36484 8.33139 5.10239 8.63204 5.10239C10.518 5.10239 12.0524 6.754 12.0524 8.78403C12.0524 9.10767 11.8087 9.36996 11.5081 9.36996C11.2076 9.36996 10.9638 9.10767 10.9638 8.78403C10.9638 7.40021 9.91781 6.27426 8.63204 6.27426C8.33139 6.27426 8.08773 6.01196 8.08773 5.68832ZM13.8399 9.37027C13.5393 9.37027 13.2956 9.10782 13.2956 8.78433C13.2958 7.44324 12.8106 6.18256 11.9298 5.23422C11.0488 4.28604 9.8777 3.76373 8.6319 3.76373C8.33139 3.76373 8.08759 3.50143 8.08759 3.1778C8.08759 2.85431 8.33139 2.59186 8.6319 2.59186C10.1684 2.59186 11.613 3.23608 12.6994 4.40567C13.7861 5.57526 14.3844 7.13028 14.3842 8.78433C14.3842 9.10782 14.1406 9.37027 13.8399 9.37027Z" fill="#FC420A"/>
</svg>
